<svg width="24" height="24" viewBox="0 0 24 24" fill="none" xmlns="http://www.w3.org/2000/svg">
    <path d="M19 12C19 12 21 9 21 6C21 3 19 2 17 3C15 4 15 7 15 7" stroke="#FF6600" stroke-width="2" stroke-linecap="round" stroke-linejoin="round"/>
    <path d="M14 7C14 7 14 3 12 2C10 1 8 3 8 6" stroke="#FF6600" stroke-width="2" stroke-linecap="round" stroke-linejoin="round"/>
    <path d="M7 9C4.5 9 3 11 3 14C3 18 5 21 9 21H15C18 21 20 18 20 15C20 13 18 11.5 16 11" fill="#FF6600" fill-opacity="0.2" stroke="#FF6600" stroke-width="2" stroke-linecap="round" stroke-linejoin="round"/>
    <circle cx="15" cy="14" r="1.5" fill="#FF6600"/>
</svg>